<svg xmlns="http://www.w3.org/2000/svg" width="100" height="30" viewBox="0 0 100 30" preserveAspectRatio="xMinYMin meet">
  <rect width="100" height="30" fill="#fff" />
  <path d="M 12,4 C 8,4 4,5 4,10.5 C 4,17 10,17 14,17 L 16,17 L 17,24 C 17,24.5 17.5,25 18,25 L 22,25 C 22.7,25 23.2,24.5 23.3,23.8 L 25,10 C 25,7 23,4 18,4 L 12,4 Z" fill="#003087" />
  <path d="M 40,4 C 36,4 32,5 32,10.5 C 32,17 38,17 42,17 L 44,17 L 45,24 C 45,24.5 45.5,25 46,25 L 50,25 C 50.7,25 51.2,24.5 51.3,23.8 L 53,10 C 53,7 51,4 46,4 L 40,4 Z" fill="#009cde" />
  <path d="M 66,4 L 60,25 L 65,25 L 68,12 L 73,12 C 75,12 75,13 75,14 L 74,19 C 74,20.5 73,25 78,25 L 84,25 L 85,20 L 82,20 C 81,20 81,19 81,18 L 82,13 C 82,8 79,4 73,4 L 66,4 Z" fill="#003087" />
</svg>