<svg xmlns="http://www.w3.org/2000/svg" width="40" height="12" viewBox="0 0 40 12" preserveAspectRatio="xMinYMin meet">
  <rect width="40" height="12" fill="#fff" />
  <path fill="#1434CB" d="M15.58,2.41h-3.1c-0.59,0-1.09,0.32-1.29,0.83l-3.67,8.58h2.6l0.51-1.42h3.12l0.29,1.42h2.3L15.58,2.41z M11.34,8.6l1.29-3.51L13.16,8.6H11.34z M9.32,2.41L7.23,7.4L6.98,6.34C6.49,5.32,5.42,4.23,4.26,3.68l1.89,6.15h2.49l3.32-7.42H9.32z M5.92,2.41H2.02L2,2.56C5.15,3.21,7.2,4.57,8.1,6.34L7.38,3.26C7.22,2.66,6.63,2.42,5.92,2.41z M29.14,8.54c0.04-0.33,0.6-1.83-0.76-2.77v-0.04c0.66-0.49,1.05-1.23,0.85-2.08c-0.26-1.12-1.62-1.83-3.13-1.83H23v9.42h3.32c1.51,0,2.64-0.8,2.83-1.97C29.25,8.96,29.14,8.73,29.14,8.54z M24.64,3.63h1.26c0.47,0,0.93,0.21,0.93,0.71c0,0.53-0.48,0.75-0.92,0.75h-1.27V3.63z M25.73,9.46h-1.09V7.56h1.27c0.56,0,1.06,0.24,1.06,0.83C26.97,9.17,26.31,9.46,25.73,9.46z M35.64,6.11c-1.22-0.3-1.56-0.5-1.56-0.96c0-0.32,0.37-0.68,1.17-0.68c0.66,0,1.07,0.14,1.44,0.29l0.17-1.38c-0.37-0.14-0.85-0.26-1.6-0.26c-1.73,0-2.94,0.91-2.94,2.21c0,0.96,0.87,1.5,1.53,1.82c0.68,0.33,0.91,0.54,0.91,0.84c0,0.45-0.55,0.69-1.06,0.69c-0.64,0-1.24-0.16-1.6-0.33l-0.17,1.41c0.37,0.16,1.04,0.31,1.74,0.31c1.93,0,3.05-0.96,3.05-2.27C36.75,7.22,36.66,6.38,35.64,6.11z M19.28,2.41h-2.42v9.42h2.42V2.41z M21.53,2.41l-1.9,9.42h2.28l1.9-9.42H21.53z"/>
</svg>